PathFileType	4	(X/Y/Z)	P:\Projects\LMB_grand_challenge_database\project_only\opensim\experimental_data\SixthCompetition/DM_ngait_og7_new.trc
DataRate	CameraRate	NumFrames	NumMarkers	Units	OrigDataRate	OrigDataStartFrame	OrigNumFrames
120	120	6	68	mm	120	274	314
Frame#	Time	Sternum			Neck			R_Shoulder			L_Shoulder			Xiphoid			Thoracic			R_Asis			L_Asis			R_Psis			L_Psis			Lumbar			R_Elbow			R_ElbowMedial			R_ShoulderAnterior			R_ShoulderPosterior			R_Wrist			R_Radius			R_Ulna			L_Elbow			L_ElbowMedial			L_ShoulderAnterior			L_ShoulderPosterior			L_Wrist			L_Ulna			L_Radius			L_Thigh_Superior			L_Thigh_Inferior			L_Thigh_Lateral			L_Knee_Lateral			L_Knee_Medial			L_Patella			L_Shank_Superior			L_Shank_Inferior			L_Shank_Lateral			L_Ankle_Lateral			L_Ankle_Medial			R_Thigh_Superior			R_Thigh_Inferior			R_Thigh_Lateral			R_Knee_Lateral			R_Knee_Medial			R_Patella			R_Shank_Superior			R_Shank_Inferior			R_Shank_Lateral			R_Ankle_Lateral			RankleMedial			R_Heel			R_Toe			R_Midfoot_Medial			R_Midfoot_Lateral			R_Hindfoot			R_Midfoot_Superior			R_ToeMedial			R_ToeLateral			L_Heel			L_Toe			L_Midfoot_Medial			L_Midfoot_Lateral			L_Hindfoot			L_Midfoot_Superior			L_ToeMedial			L_ToeLateral			Oglobal			Sacral			Xglobal			Yglobal			Zglobal			
		X1	Y1	Z1	X2	Y2	Z2	X3	Y3	Z3	X4	Y4	Z4	X5	Y5	Z5	X6	Y6	Z6	X7	Y7	Z7	X8	Y8	Z8	X9	Y9	Z9	X10	Y10	Z10	X11	Y11	Z11	X12	Y12	Z12	X13	Y13	Z13	X14	Y14	Z14	X15	Y15	Z15	X16	Y16	Z16	X17	Y17	Z17	X18	Y18	Z18	X19	Y19	Z19	X20	Y20	Z20	X21	Y21	Z21	X22	Y22	Z22	X23	Y23	Z23	X24	Y24	Z24	X25	Y25	Z25	X26	Y26	Z26	X27	Y27	Z27	X28	Y28	Z28	X29	Y29	Z29	X30	Y30	Z30	X31	Y31	Z31	X32	Y32	Z32	X33	Y33	Z33	X34	Y34	Z34	X35	Y35	Z35	X36	Y36	Z36	X37	Y37	Z37	X38	Y38	Z38	X39	Y39	Z39	X40	Y40	Z40	X41	Y41	Z41	X42	Y42	Z42	X43	Y43	Z43	X44	Y44	Z44	X45	Y45	Z45	X46	Y46	Z46	X47	Y47	Z47	X48	Y48	Z48	X49	Y49	Z49	X50	Y50	Z50	X51	Y51	Z51	X52	Y52	Z52	X53	Y53	Z53	X54	Y54	Z54	X55	Y55	Z55	X56	Y56	Z56	X57	Y57	Z57	X58	Y58	Z58	X59	Y59	Z59	X60	Y60	Z60	X61	Y61	Z61	X62	Y62	Z62	X63	Y63	Z63	X64	Y64	Z64	X65	Y65	Z65	X66	Y66	Z66	X67	Y67	Z67	X68	Y68	Z68	

275	3.041667	1373.12	1421.55	139.351	1528.08	1336.81	114.754	1488.63	1368.72	293.738	1408.97	1375.25	-44.3295	1546.9	1171.59	124.776	1281.93	1233.87	148.516	1466.87	948.105	286.541	1469.37	936.1660000000001	8.131819999999999	1267.3	989.473	175.005	1267.29	984.018	96.7418	1269.64	1036.56	135.637	1490.31	1061.44	409.28	-0	0	0	-0	0	0	-0	0	0	1629.43	823.1799999999999	371.013	1619.23	832.002	328.209	1587.29	814.59	390.492	1272.73	1061.56	-110.721	-0	0	0	-0	0	0	-0	0	0	1237.81	793.276	-120.849	1200.58	822.7430000000001	-129.405	1253.82	808.801	-78.5224	1450.22	782.918	-27.6418	1556.79	587.438	18.8263	1570.91	685.103	40.2135	-0	0	0	-0	0	0	1624.01	523.207	78.0986	1574.95	441.001	0.243828	1614.53	173.637	-14.3019	-0	0	0	-0	0	0	-0	0	0	1342.05	777.2329999999999	320.014	1280.32	567.362	280.074	-0	0	0	-0	0	0	-0	0	0	-0	0	0	1160.73	409.573	295.685	1051.22	230.702	289.011	1173.99	301.071	218.795	-0	0	0	-0	0	0	908.273	139.513	240.223	1179.95	39.3263	234.14	1102.05	29.2964	184.378	1090.09	24.7941	300.951	987.734	66.1467	290.004	1080.07	129.63	244.513	1143.14	33.4049	190.532	1137.95	33.8263	282.934	1567.15	56.5843	40.6719	1861.92	77.1653	22.9483	1827.88	53.7854	67.4903	1823.27	53.6245	-27.6252	-0	0	0	1721.19	126.003	24.7586	1827.88	53.7854	67.4903	1823.27	53.6245	-27.6252	-0	0	0	1267.29	986.746	135.874	-200	0	0	-0	0	200	-0	200	0	
276	3.05	1382.74	1421.23	136.957	1538.06	1337	112.097	1498.84	1369.06	291.469	1418.2	1374.44	-46.5003	1557.55	1171.78	122.048	1292.1	1233.45	147.559	1477.68	946.518	284.234	1479.9	937.259	6.38096	1277.96	989.0119999999999	173.38	1277.62	983.797	95.2294	1280.2	1036.2	134.711	1498.55	1061.5	406.781	-0	0	0	-0	0	0	-0	0	0	1635.81	822.0650000000001	369.854	1626.01	830.749	326.786	1593.39	813.582	388.795	1284.15	1059.77	-112.969	-0	0	0	-0	0	0	-0	0	0	1251.4	791.302	-123.386	1213.97	820.49	-131.98	1267.5	807.176	-80.84869999999999	1463.12	784.622	-26.4698	1569.27	587.316	17.5123	1582.64	684.005	40.9691	-0	0	0	-0	0	0	1636.08	523.365	77.2068	1588	441.184	-0.19003	1620.23	172.963	-15.4154	-0	0	0	-0	0	0	-0	0	0	1353.36	775.634	317.913	1293.32	565.424	278.2	-0	0	0	-0	0	0	-0	0	0	-0	0	0	1172.16	410.392	294.578	1058.85	234.065	288.719	1183.4	300.92	218.792	-0	0	0	-0	0	0	914.259	147.843	240.51	1181.02	37.5292	234.101	1103.4	30.0883	184.17	1091.3	25.623	300.729	990.607	71.2149	289.924	1085.53	130.995	244.7	1144.21	32.4199	190.512	1139.03	33.1868	282.921	1567.99	57.9817	39.9372	1864.58	70.27379999999999	22.8151	1829.44	48.0815	67.42059999999999	1825.13	47.6192	-27.707	-0	0	0	1724.33	123.002	24.2404	1829.44	48.0815	67.42059999999999	1825.13	47.6192	-27.707	-0	0	0	1277.79	986.404	134.305	-200	0	0	-0	0	200	-0	200	0	
277	3.058333	1392.39	1421.14	134.843	1547.91	1337.36	109.55	1509.34	1369.49	289.268	1427.53	1373.81	-48.5094	1567.97	1172.1	119.424	1302.36	1233.36	146.571	1488.27	945.546	281.945	1489.95	938.2190000000001	4.51363	1288.35	988.853	171.776	1287.64	983.873	93.7667	1290.44	1036.15	133.671	1506.51	1061.7	404.233	-0	0	0	-0	0	0	-0	0	0	1641.83	821.02	368.369	1632.61	829.797	325.421	1599.09	812.799	387.115	1295.78	1058.16	-115.052	-0	0	0	-0	0	0	-0	0	0	1265.49	789.446	-125.845	1227.82	818.386	-134.47	1281.16	804.798	-83.5916	1475	786.857	-26.7224	1581.43	588.566	16.0946	1594.2	685.8440000000001	42.7309	-0	0	0	-0	0	0	1647.95	523.728	76.2072	1600.44	442.085	-0.723012	1625.42	172.429	-16.132	-0	0	0	-0	0	0	-0	0	0	1364.82	774.154	315.62	1306.8	563.713	276.03	-0	0	0	-0	0	0	-0	0	0	-0	0	0	1184.62	411.249	293.361	1067.36	237.538	288.368	1193.85	300.956	218.478	-0	0	0	-0	0	0	920.78	157.259	241.061	1181.68	35.6765	233.854	1104.05	30.9585	183.83	1092.12	26.7793	300.417	994.0890000000001	77.1414	289.941	1091.6	132.366	244.659	1144.99	31.6741	190.459	1140.06	32.6274	282.886	1568.56	58.3794	39.8507	1864.24	63.4247	23.5034	1830.33	43.6253	67.2349	1826.28	43.2381	-27.3801	-0	0	0	1726.62	121.278	24.5917	1830.33	43.6253	67.2349	1826.28	43.2381	-27.3801	-0	0	0	1287.99	986.3630000000001	132.771	-200	0	0	-0	0	200	-0	200	0	
278	3.066667	1402.16	1421.29	132.66	1557.7	1337.84	107.036	1519.99	1370.22	287.215	1436.88	1373.42	-50.3234	1578.21	1172.57	117.035	1312.51	1233.54	145.79	1498.81	944.689	279.632	1499.92	939.333	2.74602	1298.63	988.847	170.284	1297.65	984.177	92.5048	1300.65	1036.27	132.71	1514.61	1062.14	402.037	-0	0	0	-0	0	0	-0	0	0	1647.42	820.187	367.394	1638.81	828.655	324.398	1604.62	812.169	385.544	1307.81	1056.71	-117.109	-0	0	0	-0	0	0	-0	0	0	1279.99	787.853	-128.371	1241.97	816.297	-136.878	1295.61	802.999	-86.2379	1486.45	789.296	-28.5399	1594.58	592.1420000000001	15.6737	1604.91	689.711	44.0049	-0	0	0	-0	0	0	1659.6	524.351	75.3912	1611.69	443.249	-0.891361	1629.99	172.738	-16.0758	-0	0	0	-0	0	0	-0	0	0	1376.63	772.425	312.973	1321.42	561.268	274.183	-0	0	0	-0	0	0	-0	0	0	-0	0	0	1198.22	412.086	291.821	1076.51	241.721	287.896	1205.16	301.307	217.955	-0	0	0	-0	0	0	929.1369999999999	167.174	240.695	1183.28	33.5825	233.691	1105.77	31.4053	184.283	1093.87	28.823	300.92	998.162	84.01730000000001	290.122	1098.45	133.836	244.252	1145.9	30.8471	190.508	1141.41	32.1344	282.735	1568.77	58.66	39.8926	1865.25	60.4972	23.7355	1830.98	41.228	67.60129999999999	1826.94	41.8434	-27.1241	-0	0	0	1727.81	120.624	25.1344	1830.98	41.228	67.60129999999999	1826.94	41.8434	-27.1241	-0	0	0	1298.14	986.5119999999999	131.394	-200	0	0	-0	0	200	-0	200	0	
279	3.075	1411.7	1421.91	131.188	1567.35	1338.53	104.894	1530.57	1371.08	285.207	1446.13	1373.29	-51.9859	1588.22	1173.22	114.791	1322.36	1234.01	145.269	1508.97	944.252	277.594	1509.47	940.596	0.963055	1308.6	989.172	168.913	1307.38	984.8099999999999	91.4196	1310.49	1036.75	131.814	1522.58	1062.8	399.64	-0	0	0	-0	0	0	-0	0	0	1652.66	819.2859999999999	366.431	1644.76	827.796	323.204	1609.65	811.646	383.963	1319.94	1055.6	-119.252	-0	0	0	-0	0	0	-0	0	0	1295.65	786.713	-132.499	1256.69	814.04	-139.518	1310.71	801.503	-88.6318	1497.32	791.215	-31.0439	1608.29	596.2910000000001	15.6398	1615.45	694.119	44.7965	-0	0	0	-0	0	0	1670.52	524.967	74.99120000000001	1621.98	444.219	-0.904919	1633.62	173.606	-15.741	-0	0	0	-0	0	0	-0	0	0	1388.69	770.848	310.327	1336.57	558.796	272.559	-0	0	0	-0	0	0	-0	0	0	-0	0	0	1212.75	413.14	290.189	1087.2	245.508	286.667	1217.09	301.571	217.126	-0	0	0	-0	0	0	938.879	177.958	240.243	1184.55	31.8315	233.609	1107.63	32.2931	184.367	1095.98	31.2379	301.054	1003.19	91.624	290.064	1105.84	135.487	243.567	1146.79	30.3705	190.574	1142.51	31.8013	282.705	1568.88	58.6627	40.0172	1867.08	60.4301	23.8395	1831.32	40.1632	67.7165	1827.28	40.9571	-27.0355	-0	0	0	1728.45	120.341	25.3259	1831.32	40.1632	67.7165	1827.28	40.9571	-27.0355	-0	0	0	1307.99	986.991	130.166	-200	0	0	-0	0	200	-0	200	0	
280	3.083333	1421.32	1422.65	129.821	1577.04	1339.37	102.809	1541.1	1372.25	283.362	1455.49	1373.36	-53.3082	1598.06	1173.91	112.787	1332.18	1234.79	144.651	1518.67	943.655	275.841	1519.02	942.6	-0.978833	1318.31	989.621	167.576	1316.98	985.513	90.2054	1320.02	1037.33	130.963	1530.56	1063.7	397.608	-0	0	0	-0	0	0	-0	0	0	1657.57	818.4400000000001	365.271	1650.51	826.86	322.134	1614.2	811.067	382.508	1332.23	1054.65	-121.408	-0	0	0	-0	0	0	-0	0	0	1311.08	785.617	-134.708	1271.79	812.499	-141.743	1325.6	800.138	-90.9012	1507.59	792.635	-33.2334	1622.76	601.208	15.8122	1625.52	698.533	44.4925	-0	0	0	-0	0	0	1680.74	525.389	74.8404	1631.65	445.237	-1.02133	1637.73	175.286	-15.8549	-0	0	0	-0	0	0	-0	0	0	1400.99	769.247	307.557	1352.21	556.475	270.582	-0	0	0	-0	0	0	-0	0	0	-0	0	0	1228.08	414.149	288.385	1098.58	249.82	285.494	1229.87	302.521	215.953	-0	0	0	-0	0	0	949.622	189.555	239.679	1185.75	30.4985	233.401	1109.28	33.717	184.553	1098.14	34.4687	301.291	1009.2	100.078	290.048	1113.78	137.417	242.737	1147.7	30.0435	190.473	1143.96	31.8199	282.71	1568.92	58.8327	40.022	1867.49	59.5352	24.1532	1831.83	39.4474	67.7867	1827.86	40.269	-27.2323	-0	0	0	1729.08	120.126	25.4441	1831.83	39.4474	67.7867	1827.86	40.269	-27.2323	-0	0	0	1317.65	987.567	128.891	-200	0	0	-0	0	200	-0	200	0	
